<svg enable-background="new 0 0 14 17.7" viewBox="0 0 14 17.7" xmlns="http://www.w3.org/2000/svg"><path d="m0-11.3v44h14v-44zm9.5 16h.2c-1.1.1-2 .7-2.6.7h-.1c.7-.1 1.5-.7 2.5-.7zm-5.6-3.9c.8 0 1.8.5 2.3 1.2.3.4.6.9.8 1.4-.1.3-.1.5-.1.8v.3c-.8 0-1.7-.5-2.2-1.2-.5-.6-.8-1.4-.8-2.2zm.2 15.9c-1.1 0-1.8-1-2.5-2-.8-1.2-1.1-2.2-1.1-2.3 0 0 .2-.1.5-.2-.3-.9-.5-1.8-.5-2.8 0-1.2.3-2.2.8-2.9-.2-.2-.4-.3-.4-.3 1.1-1.5 2.7-1.6 3.2-1.5h.2c-1.2.1-2.3.7-3 1.8.5.4 1.3 1.3 1.3 2.7 0 1.7-1 2.6-1.6 3 .3 1 .8 1.9 1.2 2.5.6.9 1.3 1.7 1.9 2zm5.2.1c-.8 0-1.3-.6-2.3-.7h.3c1.2 0 1.5.6 2.5.6-.1.1-.3.1-.5.1zm3.7-4.6c-.6-.4-1.6-1.3-1.6-3 0-1.4.8-2.3 1.3-2.7.5.7.8 1.7.8 2.9 0 .9-.2 1.9-.5 2.8z" fill="none"/><g fill="#e5e5e5"><path d="m9 2.9c.5-.7.9-1.8.8-2.8-.9.1-1.9.7-2.5 1.4-.5.7-1 1.7-.8 2.8.9 0 1.9-.6 2.5-1.4z"/><path d="m13.2 6c-.8-1.1-2-1.8-3.1-1.8-1.5 0-2.1.7-3.1.7-1.1 0-1.9-.8-3.1-.8-1.2.1-2.3.7-3.2 1.9 1.1.6 1.9 1.8 1.9 3.4s-.9 3-2.3 3.6c.3.8.6 1.5 1 2.2.7 1.1 1.7 2.3 2.9 2.3 1.1 0 1.4-.7 2.8-.7s1.7.8 2.8.7c1.2 0 2.2-1.4 2.9-2.5.5-.8.7-1.2 1.1-2.1-2.9-1.1-3.3-5.3-.6-6.9z"/></g></svg>